<?xml version="1.0" encoding="UTF-8" standalone="no"?>
<svg
   xmlns:dc="http://purl.org/dc/elements/1.1/"
   xmlns:cc="http://creativecommons.org/ns#"
   xmlns:rdf="http://www.w3.org/1999/02/22-rdf-syntax-ns#"
   xmlns:svg="http://www.w3.org/2000/svg"
   xmlns="http://www.w3.org/2000/svg"
   xmlns:sodipodi="http://sodipodi.sourceforge.net/DTD/sodipodi-0.dtd"
   xmlns:inkscape="http://www.inkscape.org/namespaces/inkscape"
   width="48"
   height="48"
   viewBox="0 0 12.7 12.7"
   version="1.1"
   id="svg8"
   inkscape:version="1.0.1 (3bc2e813f5, 2020-09-07)"
   sodipodi:docname="BWC.svg">
  <defs
     id="defs2">
    <clipPath
       id="2ebd9878-1416-4f00-8057-b9af9de5f167">
      <path
         d="m 24.37567,6.47662 a 17.61748,17.61748 0 0 1 16.75984,10.46938 1.11045,1.11045 0 0 1 0.13054,0.718 0.98871,0.98871 0 0 1 -1.891,0.18169 15.62239,15.62239 0 0 0 -10.79928,-9.05645 16.93076,16.93076 0 0 0 -7.14953,-0.00177 15.17723,15.17723 0 0 0 -8.566,5.35377 14.24227,14.24227 0 0 0 -2.24205,3.70795 0.98564,0.98564 0 0 1 -1.83986,-0.70737 17.61612,17.61612 0 0 1 15.59734,-10.6652"
         style="clip-rule:evenodd;fill:none"
         id="path905" />
    </clipPath>
    <clipPath
       id="4639c425-dbaa-45c4-89bf-595e62744474">
      <path
         d="m 40.28663,19.43856 a 1.94788,1.94788 0 0 1 -1.8134,-1.25068 14.69331,14.69331 0 0 0 -5.32731,-6.38395 14.48555,14.48555 0 0 0 -4.78752,-2.07448 16.01236,16.01236 0 0 0 -6.7438,0.00353 14.29576,14.29576 0 0 0 -8.02271,5.038 13.29808,13.29808 0 0 0 -2.08682,3.45746 1.9345,1.9345 0 0 1 -1.46766,1.17836 1.73946,1.73946 0 0 1 -0.33516,0.03 A 1.95187,1.95187 0 0 1 7.88,16.789 18.64334,18.64334 0 0 1 31.21783,6.563 a 18.75945,18.75945 0 0 1 8.42667,6.04526 18.539,18.539 0 0 1 2.37259,3.94432 2.06016,2.06016 0 0 1 0.19051,1.32477 1.94275,1.94275 0 0 1 -1.697,1.547 1.67709,1.67709 0 0 1 -0.224,0.01411 M 15.153,10.63615 A 16.73064,16.73064 0 0 0 9.67226,17.507 l 0.05821,-0.03881 a 15.27877,15.27877 0 0 1 2.39729,-3.95491 19.70136,19.70136 0 0 1 3.02527,-2.8771 m 19.98621,0.224 a 16.66649,16.66649 0 0 1 5.12445,6.608 l 0.01411,0.0247 0.03175,-0.03175 c -0.0088,-0.01764 -0.02293,-0.05292 -0.04586,-0.10408 A 16.594,16.594 0 0 0 35.13924,10.86021 M 24.99444,7.431 c -0.194,0 -0.38985,0.00353 -0.58565,0.01058 a 16.5996,16.5996 0 0 0 -2.59133,0.29106 19.0008,19.0008 0 0 1 4.4259,-0.25578 Q 25.62419,7.43186 24.99444,7.431"
         style="clip-rule:evenodd;fill:none"
         id="path908" />
    </clipPath>
    <clipPath
       id="4c0dc9da-c9a5-409b-a8db-5bd8c259087e">
      <rect
         x="8.3020296"
         y="22.09424"
         width="33.395939"
         height="22.40576"
         style="fill:none"
         id="rect911" />
    </clipPath>
    <clipPath
       id="673fcab0-eb35-4e35-8328-24cf748a890b">
      <rect
         x="7.7505999"
         y="21.376499"
         width="35.28017"
         height="24.696119"
         style="fill:none"
         id="rect914" />
    </clipPath>
    <clipPath
       id="08ead1e8-8203-45a5-b008-7772ff631f0b">
      <path
         d="m 8.302,22.57937 a 1.01751,1.01751 0 0 1 0.79733,-0.471 c 1.0143,-0.0088 2.03037,-0.03175 3.04291,0.01411 a 1.0545,1.0545 0 0 1 0.94551,0.94551 c 0.9949,4.05369 1.97393,8.11267 2.96706,12.16813 0.29106,1.25245 0.64563,2.49254 0.83438,3.76616 0.19581,1.14308 0.23461,2.30556 0.4216,3.45216 a 43.54862,43.54862 0 0 1 0.9261,-4.88278 q 1.94747,-7.258 3.89317,-14.516 a 1.19579,1.19579 0 0 1 1.1713,-0.94374 c 1.129,-0.02822 2.25969,-0.0088 3.38866,-0.0088 a 1.34669,1.34669 0 0 1 1.39886,0.94551 c 0.9702,3.528 1.9263,7.06309 2.89121,10.59287 a 63.42268,63.42268 0 0 1 1.68463,6.8814 c 0.09349,0.64739 0.18169,1.29478 0.31576,1.93688 a 96.45141,96.45141 0 0 1 2.09211,-10.88393 c 0.64386,-2.87181 1.27361,-5.74714 1.92453,-8.61895 a 1.16428,1.16428 0 0 1 1.24363,-0.85025 c 0.91376,-0.0053 1.82751,-0.03175 2.73951,0.01411 a 0.7942,0.7942 0 0 1 0.6615,1.09721 q -2.74921,10.13688 -5.4896,20.27551 a 1.17976,1.17976 0 0 1 -1.12191,0.97373 c -1.41473,0.04586 -2.833,0.01058 -4.246,0.0194 a 1.02264,1.02264 0 0 1 -1.13249,-0.7744 C 28.3852,39.06403 27.1451,34.41057 25.88913,29.75888 a 31.60291,31.60291 0 0 1 -0.82732,-4.95686 41.22259,41.22259 0 0 1 -0.74441,4.44177 q -1.92359,7.18393 -3.8614,14.36786 c -0.14465,0.77616 -1.03194,0.92963 -1.69168,0.88024 -1.31595,-0.0247 -2.63014,0.03 -3.94432,-0.0247 A 0.95229,0.95229 0 0 1 13.90624,43.66104 Q 11.13591,33.5665 8.37259,23.46843 A 5.18045,5.18045 0 0 1 8.30203,22.57937"
         style="clip-rule:evenodd;fill:none"
         id="path917" />
    </clipPath>
    <clipPath
       id="clipPath1530">
      <rect
         x="7.7505999"
         y="21.376499"
         width="35.28017"
         height="24.696119"
         style="fill:none"
         id="rect1528" />
    </clipPath>
  </defs>
  <sodipodi:namedview
     id="base"
     pagecolor="#ffffff"
     bordercolor="#666666"
     borderopacity="1.0"
     inkscape:pageopacity="0.0"
     inkscape:pageshadow="2"
     inkscape:zoom="11.628481"
     inkscape:cx="33.067576"
     inkscape:cy="26.453157"
     inkscape:document-units="mm"
     inkscape:current-layer="layer1"
     inkscape:document-rotation="0"
     showgrid="false"
     inkscape:window-width="1920"
     inkscape:window-height="1057"
     inkscape:window-x="-8"
     inkscape:window-y="-8"
     inkscape:window-maximized="1"
     units="px" />
  <metadata
     id="metadata5">
    <rdf:RDF>
      <cc:Work
         rdf:about="">
        <dc:format>image/svg+xml</dc:format>
        <dc:type
           rdf:resource="http://purl.org/dc/dcmitype/StillImage" />
        <dc:title></dc:title>
      </cc:Work>
    </rdf:RDF>
  </metadata>
  <g
     inkscape:label="Layer 1"
     inkscape:groupmode="layer"
     id="layer1">
    <g
       id="g1663"
       transform="matrix(0.08559361,0,0,0.08559361,-2.9789387,-4.143991)">
      <path
         id="path857"
         style="fill:#1a1a1a;stroke:#000000;stroke-width:3.32258;stroke-linecap:round;stroke-linejoin:round;stroke-opacity:0"
         d="m 110.38869,57.454701 a 66.640799,64.967193 0 0 0 -9.90069,0.720886 c -1.660285,5.438799 -3.281305,10.705619 -4.69584,14.62908 A 52.653853,51.641205 0 0 0 85.457905,76.936715 C 81.573846,75.102512 76.563878,72.442632 71.433438,69.711317 a 66.640799,64.967193 0 0 0 -14.00793,13.280327 c 2.677607,5.029358 5.316651,9.983496 7.19491,13.898893 A 52.653853,51.641205 0 0 0 59.777302,108.1808 c -4.225669,1.4778 -9.758614,3.15736 -15.330845,4.8581 a 66.640799,64.967193 0 0 0 -0.698666,9.38289 66.640799,64.967193 0 0 0 0.699182,9.38341 c 5.571726,1.70059 11.104372,3.38037 15.329813,4.8581 a 52.653853,51.641205 0 0 0 4.843632,11.28975 c -1.878259,3.91527 -4.517303,8.86954 -7.19491,13.89889 a 66.640799,64.967193 0 0 0 14.007414,13.28085 c 5.130591,-2.7314 10.140799,-5.39159 14.024983,-7.22592 a 52.653853,51.641205 0 0 0 10.334255,4.13205 c 1.414535,3.92348 3.035575,9.19034 4.69584,14.62908 a 66.640799,64.967193 0 0 0 9.90069,0.72088 66.640799,64.967193 0 0 0 9.9012,-0.72088 c 1.66026,-5.43872 3.2813,-10.7056 4.69584,-14.62908 a 52.653853,51.641205 0 0 0 10.33425,-4.13153 c 3.88387,1.83433 8.89375,4.49421 14.02395,7.2254 a 66.640799,64.967193 0 0 0 14.00845,-13.28085 c -2.67761,-5.02935 -5.31704,-9.98362 -7.19543,-13.89889 a 52.653853,51.641205 0 0 0 4.84364,-11.28975 c 4.22563,-1.47777 9.75839,-3.15745 15.33032,-4.8581 a 66.640799,64.967193 0 0 0 0.69867,-9.38341 66.640799,64.967193 0 0 0 -0.69867,-9.38289 c -5.57193,-1.70065 -11.1047,-3.38033 -15.33032,-4.8581 a 52.653853,51.641205 0 0 0 -4.84364,-11.290782 c 1.87838,-3.915328 4.51792,-8.869206 7.19543,-13.898374 A 66.640799,64.967193 0 0 0 149.34445,69.710799 c -5.13052,2.731357 -10.14043,5.391589 -14.02447,7.225916 A 52.653853,51.641205 0 0 0 124.98573,72.804667 C 123.5712,68.8812 121.95017,63.61437 120.28989,58.175587 a 66.640799,64.967193 0 0 0 -9.9012,-0.720886 z" />
      <path
         id="ellipse847"
         style="fill:#4d4d4d;stroke:#000000;stroke-width:12.5578;stroke-linecap:round;stroke-linejoin:round;stroke-opacity:0"
         d="m 406.65234,218.51758 a 251.87074,245.5453 0 0 0 -37.41992,2.72461 c -6.27508,20.55609 -12.40178,40.46218 -17.74804,55.29101 a 199.00669,195.17936 0 0 0 -39.0586,15.61719 c -14.67991,-6.93242 -33.61522,-16.98551 -53.00586,-27.30859 a 251.87074,245.5453 0 0 0 -52.94336,50.19336 c 10.12009,19.0086 20.09443,37.7329 27.19336,52.53125 a 199.00669,195.17936 0 0 0 -18.30469,42.67187 c -15.97103,5.58538 -36.88295,11.93333 -57.94335,18.36133 a 251.87074,245.5453 0 0 0 -2.64063,35.46289 251.87074,245.5453 0 0 0 2.64258,35.46484 c 21.05849,6.42742 41.96928,12.77622 57.93945,18.36133 a 199.00669,195.17936 0 0 0 18.30664,42.66992 c -7.09893,14.79787 -17.07327,33.52266 -27.19336,52.53125 a 251.87074,245.5453 0 0 0 52.94141,50.19532 c 19.39121,-10.3234 38.32743,-20.37766 53.00781,-27.31055 a 199.00669,195.17936 0 0 0 39.0586,15.61719 c 5.34628,14.82889 11.47303,34.73514 17.74804,55.29101 a 251.87074,245.5453 0 0 0 37.41992,2.72461 251.87074,245.5453 0 0 0 37.42188,-2.72461 c 6.275,-20.5558 12.40175,-40.4621 17.74805,-55.29101 a 199.00669,195.17936 0 0 0 39.05859,-15.61524 c 14.67917,6.93291 33.61417,16.98599 53.00391,27.3086 a 251.87074,245.5453 0 0 0 52.94531,-50.19532 c -10.12009,-19.00859 -20.0959,-37.73338 -27.19531,-52.53125 a 199.00669,195.17936 0 0 0 18.30664,-42.66992 c 15.97089,-5.58526 36.88212,-11.93367 57.9414,-18.36133 a 251.87074,245.5453 0 0 0 2.64063,-35.46484 251.87074,245.5453 0 0 0 -2.64063,-35.46289 c -21.0593,-6.42767 -41.97052,-12.77607 -57.9414,-18.36133 a 199.00669,195.17936 0 0 0 -18.30664,-42.67383 c 7.09936,-14.79809 17.0756,-33.52141 27.19531,-52.52929 a 251.87074,245.5453 0 0 0 -52.94336,-50.19532 c -19.39094,10.32324 -38.32604,20.37766 -53.00586,27.31055 A 199.00669,195.17936 0 0 0 461.82227,276.5332 C 456.476,261.70435 450.34929,241.79822 444.07422,221.24219 a 251.87074,245.5453 0 0 0 -37.42188,-2.72461 z"
         transform="scale(0.26458333)" />
    </g>
  </g>
  <g
     inkscape:groupmode="layer"
     id="layer2"
     inkscape:label="Layer 2">
    <g
       id="g1659"
       transform="matrix(-0.07488207,0,0,-0.07488207,17.262534,14.29399)">
      <g
         clip-path="url(#2ebd9878-1416-4f00-8057-b9af9de5f167)"
         id="g926"
         transform="matrix(2.2784481,0,0,2.2784481,88.773392,49.125844)">
        <rect
           x="-0.10458"
           y="-2.3540001"
           width="50.20916"
           height="29.646351"
           style="fill:#f69f1a"
           id="rect924" />
      </g>
      <g
         clip-path="url(#4639c425-dbaa-45c4-89bf-595e62744474)"
         id="g930"
         transform="matrix(2.2784481,0,0,2.2784481,88.773392,49.125844)">
        <rect
           x="-1.06941"
           y="-3.32005"
           width="52.138809"
           height="31.57864"
           style="fill:#f69f1a"
           id="rect928" />
      </g>
      <g
         clip-path="url(#4c0dc9da-c9a5-409b-a8db-5bd8c259087e)"
         id="g942"
         transform="matrix(2.2784481,0,0,2.2784481,88.773392,49.125844)">
        <g
           style="isolation:isolate"
           id="g940">
          <g
             clip-path="url(#673fcab0-eb35-4e35-8328-24cf748a890b)"
             id="g938">
            <g
               clip-path="url(#08ead1e8-8203-45a5-b008-7772ff631f0b)"
               id="g936">
              <g
                 clip-path="url(#673fcab0-eb35-4e35-8328-24cf748a890b)"
                 id="g934">
                <rect
                   x="-0.51801002"
                   y="13.27419"
                   width="51.03603"
                   height="40.046108"
                   style="fill:#0067ab"
                   id="rect932" />
              </g>
            </g>
          </g>
        </g>
      </g>
    </g>
  </g>
</svg>
